<svg width="273" height="204" viewBox="0 0 273 204" fill="none" xmlns="http://www.w3.org/2000/svg">
<rect width="273" height="204" fill="white"/>
<path d="M197.296 77.7111L192.056 81.1778C188.859 76.437 184.685 72.7037 179.534 69.9778C174.442 67.1926 168.907 65.8 162.927 65.8C153.217 65.8 144.929 69.237 138.061 76.1111C131.193 82.9852 127.759 91.2815 127.759 101C127.759 110.719 131.193 119.015 138.061 125.889C144.929 132.763 153.217 136.2 162.927 136.2C168.907 136.2 174.442 134.807 179.534 132.022C184.685 129.237 188.859 125.474 192.056 120.733L197.207 124.467C193.418 130.037 188.504 134.452 182.465 137.711C176.426 140.97 169.913 142.6 162.927 142.6C157.303 142.6 151.915 141.504 146.764 139.311C141.672 137.119 137.262 134.156 133.532 130.422C129.802 126.689 126.841 122.274 124.651 117.178C122.46 112.022 121.365 106.63 121.365 101C121.365 95.3704 122.46 90.0074 124.651 84.9111C126.841 79.7556 129.802 75.3111 133.532 71.5778C137.262 67.8444 141.672 64.8815 146.764 62.6889C151.915 60.4963 157.303 59.4 162.927 59.4C169.972 59.4 176.515 61.0593 182.554 64.3778C188.592 67.637 193.506 72.0815 197.296 77.7111ZM207.864 70.4222L202.535 73.8889C198.154 67.4889 192.47 62.4222 185.484 58.6889C178.557 54.8963 171.038 53 162.927 53C154.224 53 146.202 55.163 138.86 59.4889C131.519 63.7556 125.687 69.563 121.365 76.9111C117.102 84.2593 114.971 92.2889 114.971 101C114.971 109.711 117.102 117.741 121.365 125.089C125.687 132.437 131.519 138.274 138.86 142.6C146.202 146.867 154.224 149 162.927 149C171.038 149 178.587 147.104 185.573 143.311C192.559 139.519 198.243 134.393 202.624 127.933L207.864 131.578C202.891 138.926 196.437 144.733 188.504 149C180.629 153.267 172.104 155.4 162.927 155.4C153.099 155.4 144.011 152.97 135.663 148.111C127.315 143.252 120.714 136.644 115.859 128.289C111.004 119.933 108.577 110.837 108.577 101C108.577 91.163 111.004 82.0667 115.859 73.7111C120.714 65.3556 127.315 58.7481 135.663 53.8889C144.011 49.0296 153.099 46.6 162.927 46.6C172.104 46.6 180.629 48.7333 188.504 53C196.437 57.2667 202.891 63.0741 207.864 70.4222ZM218.521 63.3111L213.192 66.7778C207.627 58.6 200.404 52.1407 191.523 47.4C182.702 42.6 173.17 40.2 162.927 40.2C154.697 40.2 146.823 41.8 139.304 45C131.785 48.2 125.302 52.5259 119.855 57.9778C114.468 63.3704 110.175 69.8296 106.978 77.3556C103.781 84.8815 102.182 92.763 102.182 101C102.182 109.237 103.781 117.119 106.978 124.644C110.175 132.17 114.468 138.659 119.855 144.111C125.302 149.504 131.785 153.8 139.304 157C146.823 160.2 154.697 161.8 162.927 161.8C173.229 161.8 182.79 159.4 191.612 154.6C200.433 149.8 207.627 143.311 213.192 135.133L218.343 138.956C212.186 147.963 204.223 155.104 194.454 160.378C184.744 165.593 174.235 168.2 162.927 168.2C150.79 168.2 139.571 165.207 129.269 159.222C118.967 153.178 110.797 145 104.758 134.689C98.7782 124.378 95.7883 113.148 95.7883 101C95.7883 88.8519 98.7782 77.6222 104.758 67.3111C110.797 57 118.967 48.8519 129.269 42.8667C139.571 36.8222 150.79 33.8 162.927 33.8C174.294 33.8 184.863 36.4667 194.631 41.8C204.4 47.0741 212.363 54.2444 218.521 63.3111ZM229 56.0222L223.672 59.4889C216.922 49.5926 208.189 41.7704 197.473 36.0222C186.816 30.2741 175.301 27.4 162.927 27.4C152.981 27.4 143.448 29.3556 134.331 33.2667C125.273 37.1185 117.457 42.3333 110.886 48.9111C104.314 55.4889 99.0742 63.3407 95.1667 72.4667C91.3183 81.5333 89.3942 91.0444 89.3942 101C89.3942 110.956 91.3183 120.496 95.1667 129.622C99.0742 138.689 104.314 146.511 110.886 153.089C117.457 159.667 125.273 164.911 134.331 168.822C143.448 172.674 152.981 174.6 162.927 174.6C175.301 174.6 186.846 171.696 197.562 165.889C208.278 160.081 217.011 152.23 223.76 142.333L228.911 146.244C221.57 156.911 212.097 165.385 200.493 171.667C188.888 177.889 176.367 181 162.927 181C152.092 181 141.732 178.867 131.844 174.6C122.016 170.393 113.52 164.733 106.356 157.622C99.2518 150.452 93.5681 141.948 89.3053 132.111C85.1018 122.215 83 111.844 83 101C83 90.1556 85.1018 79.8148 89.3053 69.9778C93.5681 60.0815 99.2518 51.5778 106.356 44.4667C113.52 37.2963 122.016 31.6074 131.844 27.4C141.732 23.1333 152.092 21 162.927 21C176.426 21 188.977 24.1407 200.582 30.4222C212.186 36.7037 221.659 45.237 229 56.0222Z" fill="#FAA604"/>
<path d="M81.9764 85.8H71.1021C66.4887 85.8 63.1635 84.63 61.1264 82.29C59.0894 79.89 58.0708 76.74 58.0708 72.84C58.0708 64.2 64.5115 59.88 77.393 59.88C86.9019 59.88 94.5616 60.9912 100.372 63.2135C101.798 63.7589 103.112 64.3712 104.316 65.0504C104.399 65.0977 105.036 65.4568 105.624 65.8415L104.5 68L102.815 70.9086C102.815 70.9086 102.714 70.8589 102.702 70.8529C101.815 70.411 99.2577 69.1308 99.1606 69.0892C98.5887 68.8442 97.9621 68.6156 97.281 68.4036C92.9049 67.0412 86.2755 66.36 77.393 66.36C72.2404 66.36 68.7654 66.93 66.968 68.07C65.2305 69.21 64.3618 70.8 64.3618 72.84C64.3618 74.88 64.8411 76.47 65.7997 77.61C66.7583 78.75 68.5258 79.32 71.1021 79.32H82.246C90.3343 79.32 97.6139 80.7 104.085 83.46C110.615 86.22 115.977 90 120.171 94.8C124.365 99.54 127.571 105.03 129.788 111.27C132.004 117.45 133.113 124.08 133.113 131.16C133.113 136.92 132.304 142.38 130.686 147.54C129.069 152.7 126.612 157.44 123.317 161.76C120.081 166.08 116.157 169.83 111.544 173.01C106.99 176.13 101.538 178.56 95.1874 180.3C88.8964 182.1 82.0663 183 74.6969 183C63.1335 183 52.2892 181.23 42.1637 177.69C32.0982 174.21 23.7103 169.32 17 163.02L22.2125 159.15C28.3237 164.67 35.9627 168.96 45.1295 172.02C54.3562 175.02 64.212 176.52 74.6969 176.52C82.9051 176.52 90.3044 175.35 96.8949 173.01C103.545 170.61 108.997 167.34 113.251 163.2C117.565 159.06 120.86 154.26 123.137 148.8C125.474 143.34 126.642 137.46 126.642 131.16C126.642 122.82 124.964 115.29 121.609 108.57C118.254 101.79 113.132 96.3 106.241 92.1C99.4113 87.9 91.3229 85.8 81.9764 85.8ZM71.1021 92.28H81.3473C93.5098 92.28 103.006 96 109.836 103.44C116.726 110.88 120.171 120.12 120.171 131.16C120.171 142.38 116.187 151.68 108.219 159.06C100.25 166.38 89.0762 170.04 74.6969 170.04C65.1107 170.04 56.1536 168.72 47.8256 166.08C39.4976 163.44 32.5776 159.72 27.0655 154.92L32.0982 150.87C37.0112 154.89 43.1823 158.01 50.6116 160.23C58.1008 162.45 66.1292 163.56 74.6969 163.56C87.3387 163.56 96.9848 160.53 103.635 154.47C110.346 148.41 113.701 140.64 113.701 131.16C113.701 121.8 110.885 114.06 105.253 107.94C99.6809 101.82 91.6824 98.76 81.2574 98.76H71.1021C62.3547 98.76 55.7941 96.36 51.4204 91.56C47.0467 86.76 44.8599 80.52 44.8599 72.84C44.8599 65.16 47.556 58.92 52.9482 54.12C58.4004 49.32 66.5486 46.92 77.393 46.92C85.002 46.92 92.0718 47.82 98.6024 49.62C104.292 51.1359 109.117 53.2438 113.079 55.9437L109.113 60.7736C101.65 55.8579 91.0769 53.4 77.393 53.4C68.346 53.4 61.7256 55.2 57.5316 58.8C53.3976 62.34 51.3305 67.02 51.3305 72.84C51.3305 78.72 52.8583 83.43 55.9139 86.97C59.0294 90.51 64.0922 92.28 71.1021 92.28ZM71.1021 105.24H80.9878C89.7352 105.24 96.2958 107.67 100.669 112.53C105.043 117.39 107.23 123.6 107.23 131.16C107.23 138.84 104.504 145.08 99.0518 149.88C93.6596 154.68 85.5413 157.08 74.6969 157.08C67.0878 157.08 59.9881 156.21 53.3976 154.47C46.867 152.67 41.4747 150.12 37.2209 146.82L42.3435 142.86C49.8327 148.02 60.6172 150.6 74.6969 150.6C83.7438 150.6 90.3343 148.83 94.4684 145.29C98.6623 141.69 100.759 136.98 100.759 131.16C100.759 125.34 99.2016 120.66 96.0861 117.12C92.9705 113.52 87.9078 111.72 80.8979 111.72H71.1021C58.8197 111.72 49.2036 108.06 42.2536 100.74C35.3635 93.36 31.9185 84.06 31.9185 72.84C31.9185 61.62 35.9028 52.35 43.8713 45.03C51.8398 37.65 63.0137 33.96 77.393 33.96C86.9792 33.96 95.9063 35.28 104.174 37.92C111.397 40.2096 117.561 43.3115 122.665 47.2257L117.617 51.3893C113.118 48.1983 107.708 45.6585 101.388 43.77C93.9591 41.55 85.9606 40.44 77.393 40.44C64.7512 40.44 55.0751 43.47 48.3648 49.53C41.7144 55.59 38.3892 63.36 38.3892 72.84C38.3892 82.26 41.2051 90.03 46.837 96.15C52.4689 102.21 60.5572 105.24 71.1021 105.24ZM71.1021 118.2H80.9878C85.6012 118.2 88.9264 119.4 90.9634 121.8C93.0005 124.2 94.019 127.32 94.019 131.16C94.019 139.8 87.5783 144.12 74.6969 144.12C62.5344 144.12 53.3976 142.32 47.2864 138.72L52.4989 134.76C56.6928 136.68 64.0922 137.64 74.6969 137.64C79.8495 137.64 83.2945 137.07 85.032 135.93C86.8294 134.79 87.7281 133.2 87.7281 131.16C87.7281 129.18 87.2188 127.62 86.2003 126.48C85.2417 125.28 83.4443 124.68 80.8081 124.68H71.1021C62.834 124.68 55.3448 123.33 48.6344 120.63C41.984 117.93 36.5019 114.21 32.1881 109.47C27.9342 104.73 24.669 99.24 22.3922 93C20.1155 86.76 18.9772 80.04 18.9772 72.84C18.9772 67.08 19.786 61.62 21.4037 56.46C23.0213 51.3 25.4478 46.56 28.6832 42.24C31.9784 37.92 35.9028 34.2 40.4562 31.08C45.0696 27.9 50.5217 25.44 56.8126 23.7C63.1635 21.9 70.0236 21 77.393 21C88.9563 21 99.7708 22.77 109.836 26.31C119.495 29.6494 127.609 34.2872 134.178 40.2233L128.232 43.5C122.396 38.6307 115.276 34.8207 106.871 32.07C97.7037 29.01 87.8779 27.48 77.393 27.48C69.1848 27.48 61.7555 28.68 55.1051 31.08C48.5146 33.42 43.0625 36.66 38.7487 40.8C34.4948 44.94 31.1995 49.74 28.8629 55.2C26.5862 60.66 25.4478 66.54 25.4478 72.84C25.4478 81.3 27.1554 88.92 30.5704 95.7C33.9855 102.48 39.198 107.94 46.2079 112.08C53.2178 116.16 61.5159 118.2 71.1021 118.2Z" fill="#04A1FA"/>
<path d="M163 40.3043V34H257V40.3043H163ZM163 52.913V46.6087H257V52.913H163ZM163 65.5217V59.2174H257V65.5217H231.933V179H225.667V65.5217H219.4V179H213.133V65.5217H206.867V179H200.6V65.5217H194.333V179H188.067V65.5217H163Z" fill="#04A1FA"/>
</svg>
